HIERARCHY
ROOT Hips
{
    OFFSET 0.000000 0.000000 0.000000
    CHANNELS 6 Xposition Yposition Zposition Zrotation Xrotation Yrotation
    JOINT Spine
    {
        OFFSET -0.000000 7.856138 0.000000
        CHANNELS 3 Zrotation Xrotation Yrotation
        JOINT Spine1
        {
            OFFSET -0.000000 20.830866 0.000000
            CHANNELS 3 Zrotation Xrotation Yrotation
            JOINT Neck
            {
                OFFSET -0.000000 20.745317 1.885938
                CHANNELS 3 Zrotation Xrotation Yrotation
                JOINT Head
                {
                    OFFSET -0.000000 13.412918 -1.916131
                    CHANNELS 3 Zrotation Xrotation Yrotation
                    End Site
                    {
                        OFFSET -0.000000 23.951641 0.000000
                    }
                }
            }
            JOINT LeftShoulder
            {
                OFFSET 3.826675 19.078362 -0.073511
                CHANNELS 3 Zrotation Xrotation Yrotation
                JOINT LeftArm
                {
                    OFFSET 10.442133 0.000000 0.000000
                    CHANNELS 3 Zrotation Xrotation Yrotation
                    JOINT LeftForeArm
                    {
                        OFFSET 37.051945 0.000000 0.000000
                        CHANNELS 3 Zrotation Xrotation Yrotation
                        JOINT LeftHand
                        {
                            OFFSET 24.394852 0.000000 0.000000
                            CHANNELS 3 Zrotation Xrotation Yrotation
                            End Site
                            {
                                OFFSET 14.370985 0.000000 0.000000
                            }
                        }
                    }
                }
            }
            JOINT RightShoulder
            {
                OFFSET -3.827599 19.078362 -0.073511
                CHANNELS 3 Zrotation Xrotation Yrotation
                JOINT RightArm
                {
                    OFFSET -10.442133 0.000000 0.000000
                    CHANNELS 3 Zrotation Xrotation Yrotation
                    JOINT RightForeArm
                    {
                        OFFSET -37.051945 0.000000 0.000000
                        CHANNELS 3 Zrotation Xrotation Yrotation
                        JOINT RightHand
                        {
                            OFFSET -24.394852 0.000000 0.000000
                            CHANNELS 3 Zrotation Xrotation Yrotation
                            End Site
                            {
                                OFFSET -14.370985 0.000000 0.000000
                            }
                        }
                    }
                }
            }
        }
    }
    JOINT LeftUpLeg
    {
        OFFSET 9.580656 0.000000 0.000000
        CHANNELS 3 Zrotation Xrotation Yrotation
        JOINT LeftLeg
        {
            OFFSET -0.000000 -43.769192 0.000000
            CHANNELS 3 Zrotation Xrotation Yrotation
            JOINT LeftFoot
            {
                OFFSET -0.000000 -42.531967 0.000000
                CHANNELS 3 Zrotation Xrotation Yrotation
                JOINT LeftToeBase
                {
                    OFFSET -0.000000 -6.227426 14.370985
                    CHANNELS 3 Zrotation Xrotation Yrotation
                    End Site
                    {
                        OFFSET -0.000000 0.000000 3.832262
                    }
                }
            }
        }
    }
    JOINT RightUpLeg
    {
        OFFSET -9.580656 0.000000 0.000000
        CHANNELS 3 Zrotation Xrotation Yrotation
        JOINT RightLeg
        {
            OFFSET -0.000000 -43.769192 0.000000
            CHANNELS 3 Zrotation Xrotation Yrotation
            JOINT RightFoot
            {
                OFFSET -0.000000 -42.531967 0.000000
                CHANNELS 3 Zrotation Xrotation Yrotation
                JOINT RightToeBase
                {
                    OFFSET -0.000000 -6.227426 14.370985
                    CHANNELS 3 Zrotation Xrotation Yrotation
                    End Site
                    {
                        OFFSET -0.000000 0.000000 3.832262
                    }
                }
            }
        }
    }
}
MOTION
Frames:    5
Frame Time:    0.008333
13.977226    86.756042    47.952770    -7.034997    -4.510527    89.367393    0.100203    -7.760073    2.334013    7.227025    9.504684    1.725637    -2.625824    0.459659    -3.437916    5.905087    -11.353884    -1.786158    -7.863945    12.575859    5.171828    -42.685947    37.694229    -24.516712    23.594019    -23.285391    -52.428596    6.405805    -10.920400    20.195232    1.664816    12.708663    -0.248259    38.751026    51.323452    24.931978    -6.826777    -25.451063    29.520596    -9.265208    -23.249588    -7.591814    12.845461    -27.404423    2.766213    -31.513498    56.824665    21.978947    4.526576    -27.818697    9.350258    0.000000    0.000000    0.000000    -6.741617    -17.140133    -6.350731    1.121942    30.105444    -4.990080    2.260331    -23.818287    -5.055470    0.000000    0.000000    0.000000    
13.830997    86.420929    48.680794    -7.310299    -4.948179    88.886627    1.179768    -8.668977    2.526601    6.422276    11.223204    1.805512    -2.216138    -0.080898    -3.232211    5.712009    -12.218860    -1.625220    -7.648618    12.469447    5.282462    -43.396019    36.723377    -25.504938    22.526117    -22.380215    -50.339558    6.667495    -11.009573    19.372793    1.743805    12.137852    0.095858    38.715755    50.638008    25.536087    -6.511168    -25.162025    27.988522    -10.053193    -23.079247    -7.469885    12.578029    -27.713909    2.929838    -30.348299    56.598736    20.682661    4.770281    -28.503832    9.638645    0.000000    0.000000    0.000000    -5.989215    -18.523159    -5.299342    1.826578    32.006603    -5.792526    1.751377    -24.666939    -5.284629    0.000000    0.000000    0.000000    
13.706035    86.222626    49.282692    -7.529370    -5.233700    88.355034    1.831815    -9.371028    2.934878    6.046042    12.666925    2.113048    -1.363077    -0.543022    -3.172440    4.743546    -13.112534    -1.887820    -7.421938    12.470150    4.802995    -44.416920    35.790344    -26.182373    21.470709    -21.590258    -48.244465    6.398324    -11.276008    18.085442    2.272908    11.716555    -0.252491    37.970448    50.124393    26.246485    -6.338040    -25.181416    26.567564    -10.665887    -23.149990    -7.798189    12.077233    -27.882111    2.908630    -29.144707    56.223839    17.272694    6.171935    -28.718004    12.420747    0.000000    0.000000    0.000000    -5.534873    -19.977570    -4.855424    2.415498    34.058208    -6.062948    1.851907    -24.663586    -5.296648    0.000000    0.000000    0.000000    
13.634011    86.130646    49.848083    -7.522946    -5.399819    87.904823    2.057933    -9.563261    3.375293    6.082184    13.433152    2.486197    -0.618999    -0.913631    -3.178190    3.974281    -13.382634    -2.192183    -7.191902    12.707821    3.977884    -45.609993    35.174747    -26.527769    20.319632    -21.008488    -46.174793    7.086604    -11.551550    17.543736    2.901214    11.391346    -0.658636    37.291206    50.128902    26.403046    -5.863262    -25.446812    25.501883    -12.302225    -23.368084    -8.845354    11.515241    -27.535376    2.513508    -28.319769    54.858868    17.661373    6.469143    -29.149454    11.533371    0.000000    0.000000    0.000000    -5.224699    -20.985752    -4.796918    2.792169    35.743046    -6.146730    2.223767    -24.380592    -5.105445    0.000000    0.000000    0.000000    
13.594398    86.141159    50.384258    -7.403398    -5.457442    87.478065    2.205384    -9.149033    3.659527    5.984359    13.118616    2.794336    0.130808    -0.462291    -3.086584    3.236656    -13.867189    -2.389434    -6.978761    13.205022    3.289556    -46.534657    35.399651    -26.443556    19.090734    -20.844120    -44.191956    9.163464    -11.999361    17.301558    3.566141    11.608878    -0.527544    37.072628    50.021038    26.026009    -5.636403    -25.572998    24.428703    -14.485867    -23.252352    -10.419200    10.706432    -27.068680    2.203968    -27.135700    53.664635    16.395832    6.139778    -29.394606    11.880875    0.000000    0.000000    0.000000    -5.121338    -21.474497    -5.018070    3.147418    36.710087    -6.289853    2.669033    -23.973158    -4.545591    0.000000    0.000000    0.000000    
